<svg width="520" height="140" viewBox="0 0 520 140" fill="none"
     xmlns="http://www.w3.org/2000/svg">

  <!-- Cloud -->
  <path d="M90 75
           C70 75 60 60 60 48
           C60 34 72 25 85 28
           C92 15 112 15 120 28
           C135 25 150 34 150 50
           C150 65 138 75 122 75
           Z"
        fill="none"
        stroke="#2F6FDB"
        stroke-width="5"
        stroke-linecap="round"/>

  <!-- Circuit lines -->
  <circle cx="78" cy="63" r="4" fill="#2F6FDB"/>
  <circle cx="92" cy="55" r="4" fill="#2F6FDB"/>
  <line x1="78" y1="63" x2="92" y2="55" stroke="#2F6FDB" stroke-width="2"/>

  <!-- Terraform cubes -->
  <!-- Cube 1 -->
  <polygon points="100,40 120,50 100,60 80,50"
           fill="#7B5FEA"/>
  <polygon points="80,50 100,60 100,85 80,75"
           fill="#5C4EE5"/>
  <polygon points="100,60 120,50 120,75 100,85"
           fill="#4A3DCB"/>

  <!-- Cube 2 -->
  <polygon points="125,55 145,65 125,75 105,65"
           fill="#7B5FEA"/>
  <polygon points="105,65 125,75 125,95 105,85"
           fill="#5C4EE5"/>
  <polygon points="125,75 145,65 145,85 125,95"
           fill="#4A3DCB"/>

  <!-- Cube 3 -->
  <polygon points="110,25 130,35 110,45 90,35"
           fill="#7B5FEA"/>
  <polygon points="90,35 110,45 110,65 90,55"
           fill="#5C4EE5"/>
  <polygon points="110,45 130,35 130,55 110,65"
           fill="#4A3DCB"/>

  <!-- Text -->
  <text x="180" y="65"
        font-size="40"
        font-family="Segoe UI, Arial, sans-serif"
        fill="#4A3DCB"
        font-weight="700">
    Terraform
  </text>

  <text x="182" y="98"
        font-size="18"
        font-family="Segoe UI, Arial, sans-serif"
        fill="#6B7280"
        letter-spacing="2">
    LEARNING PORTFOLIO
  </text>

</svg>
